<?xml version="1.0" standalone="no"?>
<!DOCTYPE svg PUBLIC "-//W3C//DTD SVG 20010904//EN"
 "http://www.w3.org/TR/2001/REC-SVG-20010904/DTD/svg10.dtd">
<svg version="1.0" xmlns="http://www.w3.org/2000/svg"
 width="260.000000pt" height="260.000000pt" viewBox="0 0 260.000000 260.000000"
 preserveAspectRatio="xMidYMid meet">
<metadata>
Created by potrace 1.11, written by Peter Selinger 2001-2013
</metadata>
<g transform="translate(0.000000,260.000000) scale(0.100000,-0.100000)"
fill="#000000" stroke="none">
<path d="M1672 2366 c-33 -41 -153 -196 -268 -345 -115 -148 -212 -270 -216
-270 -3 -1 -75 85 -158 189 l-151 190 -357 0 c-196 0 -362 -4 -368 -8 -35 -24
-23 -43 272 -412 l296 -370 506 2 506 3 328 420 c181 231 334 427 341 435 32
38 147 192 147 196 0 3 -5 14 -10 25 -10 18 -25 19 -410 19 l-400 0 -58 -74z"/>
<path d="M778 1153 c-13 -16 -63 -77 -110 -138 -46 -60 -169 -220 -273 -355
-104 -135 -218 -283 -254 -330 -36 -47 -68 -87 -72 -90 -15 -11 -20 -52 -9
-65 11 -13 74 -15 409 -15 218 0 401 4 407 8 6 4 102 126 214 272 112 146 213
277 226 292 l23 28 151 -208 c84 -114 159 -213 168 -219 22 -18 802 -19 820
-1 26 26 39 6 -326 503 -36 50 -104 142 -150 205 -47 63 -92 121 -100 128 -12
9 -139 12 -557 12 l-541 0 -26 -27z"/>
</g>
</svg>
